PathFileType	4	(X/Y/Z)	C:/Users/beibeiliu/ov580/test_trc/User3\sequence.28_training_dense_left.trc
DataRate	CameraRate	NumFrames	NumMarkers	Units	OrigDataRate	OrigDataStartFrame	OrigNumFrames
120	120	21	19	mm	120	80	106
Frame#	Time	ThumbCMC			ThumbMCP			ThumbIP			ThumbTip			IndexMCP			IndexPIP			IndexTip			MiddleMCP			MiddlePIP			MiddleTip			RingMCP			RingPIP			RingTip			PinkyMCP			PinkyPIP			PinkyTip			BackHand1			BackHand2			BackHand3	
		X0	Y0	Z0	X1	Y1	Z1	X2	Y2	Z2	X3	Y3	Z3	X4	Y4	Z4	X5	Y5	Z5	X6	Y6	Z6	X7	Y7	Z7	X8	Y8	Z8	X9	Y9	Z9	X10	Y10	Z10	X11	Y11	Z11	X12	Y12	Z12	X13	Y13	Z13	X14	Y14	Z14	X15	Y15	Z15	X16	Y16	Z16	X17	Y17	Z17	X18	Y18	Z18	
79	0.658333	-109.809	-16.1864	2.32507	-93.1795	-16.9911	-20.6505	-76.8393	-19.559	-45.9353	-67.4649	-23.5963	-63.5272	-131.709	-6.93101	-74.1153	-131.339	-10.5683	-102.878	-129.564	-11.4411	-123.153	-150.086	1.23129	-79.16	-147.318	-4.63698	-101.77	-147.915	-5.40824	-131.752	-176.364	0.664634	-69.7499	-188.233	-3.70003	-87.385	-195.233	-8.50498	-110.166	-190.758	1.07056	-49.1425	-200.884	-2.24014	-65.3059	-208.083	-4.23864	-85.7025	-161.389	16.5202	-14.2773	-155.762	20.941	10.3806	-127.985	9.59691	-8.93257	
80	0.666667	-117.747	-16.3259	-2.97719	-97.9083	-19.5914	-22.9573	-87.6067	-21.4021	-51.4696	-77.4322	-27.9126	-68.0764	-136.373	-4.13178	-83.1276	-137.281	-7.63013	-108.336	-135.052	-10.7958	-132.183	-154.464	4.55933	-84.3752	-154.155	0.743371	-109.782	-151.542	-2.92994	-137.095	-179.409	5.85559	-71.4444	-189.049	1.85922	-91.5381	-201.04	-3.80869	-118.571	-199.442	8.38038	-56.1147	-203.231	2.18044	-71.1046	-214.763	3.12576	-90.7634	-166.321	23.6315	-24.4029	-157.983	21.9925	6.67769	-132.102	10.1079	-12.6379	
81	0.675	-121.903	-18.5762	-6.65225	-108.144	-23.1043	-30.7749	-96.4413	-27.7027	-57.0065	-87.5612	-35.6904	-72.3594	-147.455	-11.7396	-84.7841	-150.616	-15.8009	-108.633	-153.486	-19.8667	-135.322	-162.725	-3.2755	-88.8702	-163.004	-9.18636	-113.033	-168.307	-11.3232	-142.041	-192.507	2.01772	-73.8308	-204.184	-2.26019	-93.4637	-215.495	-12.3443	-120.859	-205.43	2.73755	-60.2922	-214.717	-1.45291	-75.0812	-229.438	-2.87032	-93.8508	-174.95	21.2438	-26.3408	-170.205	23.6685	1.54568	-141.8	7.93576	-18.9655	
82	0.683333	-128.558	-23.3706	-6.49023	-117.337	-31.8689	-26.2636	-105.224	-41.7209	-55.6849	-95.9618	-49	-71.4843	-155.993	-32.812	-83.1883	-158.874	-43.4318	-103.965	-165.742	-50.6067	-126.846	-174.653	-23.9758	-83.6245	-177.219	-37.4318	-110.768	-181.537	-46.2905	-137.485	-202.271	-19.8792	-72.1019	-215.61	-29.2521	-88.617	-224.502	-44.4885	-110.629	-214.205	-14.9894	-51.8028	-225.575	-23.5492	-68.7637	-237.148	-31.7037	-85.1479	-180.727	7.41288	-31.6503	-173.759	16.7019	-2.18931	-149.362	1.70532	-19.352	
83	0.691667	-130.682	-24.3421	1.30004	-114.074	-35.8857	-21.429	-105.227	-48.7769	-45.5723	-91.2465	-58.1427	-60.4089	-156.517	-58.3631	-69.7785	-159.668	-75.4087	-88.2721	-161.921	-88.4936	-107.431	-179.412	-56.2741	-75.7762	-180.986	-73.6546	-91.9201	-181.455	-89.69	-113.982	-202.78	-51.5096	-58.8724	-213.435	-68.2339	-72.1011	-224.266	-89.3046	-88.4814	-217.863	-44.7269	-41.2	-226.905	-59.0785	-52.8362	-231.737	-75.4362	-69.8135	-190.613	-11.1969	-27.0733	-185.167	5.78334	-1.33723	-154.478	-9.12271	-19.9287	
84	0.7	-129.93	-16.2894	0.067498	-111.866	-26.8189	-18.6026	-94.4466	-38.1966	-39.258	-82.3372	-47.7962	-49.5847	-146.077	-70.7309	-55.8003	-144.703	-95.4297	-70.2888	-140.257	-109.374	-83.8187	-163.49	-78.2084	-58.8413	-163.059	-96.247	-70.02	-155.524	-117.954	-90.1706	-191.698	-78.2226	-43.6771	-192.11	-101.744	-53.3195	-194.649	-125.409	-63.295	-203.932	-71.5404	-29.8395	-210.382	-90.1921	-35.4205	-209.285	-108.534	-47.4556	-193.504	-26.5702	-23.6846	-190.278	-3.35327	0.456643	-157.484	-13.0467	-18.1188	
85	0.708333	-134.532	2.60427	1.49283	-116.121	-6.73259	-17.9557	-96.7566	-15.4798	-35.8649	-79.0084	-18.3816	-49.3262	-129.713	-67.0078	-46.2292	-120.166	-84.939	-53.3647	-110.918	-104.781	-66.5965	-143.246	-75.7653	-46.5958	-130.232	-97.2453	-56.1259	-119.034	-115.921	-69.8433	-168.096	-86.6962	-30.0652	-156.811	-106.517	-35.7013	-152.171	-134.109	-40.3028	-184.909	-85.5781	-17.2473	-179.013	-101.523	-19.5729	-174.735	-125.873	-28.5928	-189.302	-34.8581	-15.8444	-193.87	-11.8559	-1.83505	-161.539	-7.06399	-15.1183	
86	0.716667	-148.95	20.5599	-0.845285	-127.236	20.1828	-22.0777	-106.824	20.7566	-40.4837	-88.5622	19.0843	-57.202	-117.518	-44.329	-42.0588	-96.8332	-57.6968	-52.3783	-81.7648	-75.6879	-62.4578	-127.337	-60.8621	-40.2849	-106.667	-72.7064	-47.4307	-85.8264	-92.1806	-65.0185	-140.459	-74.0316	-23.037	-123.922	-94.8147	-26.0551	-110.363	-112.031	-27.9833	-156.892	-76.5673	-9.18582	-142.004	-93.6313	-12.298	-134.205	-113.705	-14.8734	-182.064	-35.0046	-10.7501	-195.627	-15.3679	-1.6423	-167.956	0.103664	-18.0322	
87	0.725	-166.798	34.3562	-3.62867	-148.891	41.0721	-27.0892	-130.344	41.1692	-46.7507	-117.958	52.4882	-62.3949	-114.206	-16.8442	-47.5788	-94.0086	-23.165	-55.8104	-73.0009	-32.4513	-67.8401	-115.298	-32.5544	-45.4347	-94.0921	-36.9552	-53.531	-71.2684	-45.9517	-66.9115	-126.071	-54.5833	-24.0679	-104.131	-62.6916	-29.4698	-79.8027	-76.0239	-32.5635	-137.746	-59.6237	-8.62642	-118.583	-73.7347	-12.0116	-102.187	-85.6439	-15.345	-177.114	-32.2347	-11.7274	-199.365	-17.9001	4.38614	-178.23	4.84095	-17.8298	
88	0.733333	-186.603	36.5736	-7.82112	-176.928	46.6569	-30.5342	-163.911	57.1074	-58.8643	-154.236	65.7871	-74.1496	-127.294	9.1933	-54.9337	-102.677	12.2919	-70.9074	-85.041	8.40665	-81.247	-117.185	-9.28582	-54.8695	-96.7104	-5.43851	-67.0703	-77.2557	-1.97635	-83.3743	-118.334	-28.7482	-30.1379	-95.854	-27.839	-39.1115	-69.6865	-31.9208	-45.3385	-123.745	-36.8596	-15.8256	-104.218	-39.7397	-20.6363	-83.6283	-47.8262	-25.8805	-172.165	-25.4239	-13.1638	-193.438	-24.3042	4.74175	-184.008	5.89109	-20.8413	
89	0.741667	-200.781	24.0037	-8.08687	-201.696	34.0217	-33.4078	-197.508	45.1212	-61.2518	-199.857	56.4005	-76.3865	-143.926	20.8947	-65.7969	-126.421	31.0038	-85.0383	-111.788	37.7742	-103.85	-127.811	7.8805	-66.405	-114.624	19.6502	-83.3473	-97.1618	25.3112	-103.806	-115.443	-4.41771	-43.7099	-95.469	0.544442	-53.8587	-74.6337	9.22141	-66.2817	-113.221	-16.9044	-22.0651	-94.672	-9.99515	-33.7919	-75.2562	-5.88012	-46.5311	-158.415	-25.8446	-13.0786	-177.36	-32.0756	8.31261	-188.147	-4.07129	-20.6331	
90	0.75	-208.29	-2.09413	-4.31263	-213.19	3.61451	-30.6964	-224.462	10.4252	-61.2746	-228.461	16.9213	-79.2154	-160.135	2.81581	-72.3411	-152.709	13.2387	-94.0288	-141.104	22.7039	-118.405	-143.851	-3.091	-72.3138	-136.068	7.99568	-93.9143	-125.124	17.8841	-123.544	-123.359	-6.49547	-54.1281	-106.488	3.35111	-71.6303	-86.4021	14.8253	-90.5307	-108.292	-10.2749	-36.6065	-100.315	-2.13915	-49.1649	-85.4094	4.53241	-63.7784	-151.891	-30.8051	-16.1527	-157.692	-39.9334	9.31612	-186.551	-25.6841	-17.0663	
91	0.758333	-208.357	-33.1518	2.50941	-223.594	-34.3144	-20.5809	-237.644	-33.6705	-45.98	-245.314	-30.6686	-63.9552	-176.819	-35.1723	-77.7373	-172.532	-30.7897	-98.7307	-169.522	-27.1706	-123.884	-160.345	-39.7485	-74.7833	-158.11	-33.2852	-104.91	-154.025	-29.5011	-133.099	-130.811	-34.5631	-66.1612	-120.245	-27.9626	-82.0573	-108.315	-18.9794	-105.14	-119.333	-31.3615	-42.6406	-107.695	-24.5092	-62.2878	-95.8509	-20.81	-82.4091	-148.774	-54.2399	-15.5142	-151.457	-58.5475	11.6454	-181.318	-52.0711	-10.3264	
92	0.766667	-209.156	-50.6222	12.0344	-223.924	-54.2062	-8.74755	-244.044	-61.0944	-34.2734	-253.802	-60.839	-52.0978	-189.166	-71.9382	-64.7814	-191.479	-75.4491	-92.1616	-190.649	-77.2204	-113.875	-170.476	-78.3757	-69.5253	-173.896	-77.9835	-96.3429	-180.27	-81.9054	-127.785	-142.167	-71.2901	-62.2795	-136.076	-69.9907	-85.8545	-131.63	-68.5388	-108.893	-127.21	-64.3899	-46.8154	-122.551	-62.1422	-66.7128	-116.069	-62.435	-90.7136	-150.331	-77.9729	-8.45189	-154.333	-76.0746	22.2247	-182.264	-73.7281	3.76659	
93	0.775	-214.079	-55.0022	17.7417	-234.662	-60.4303	-3.82078	-252.335	-62.7831	-22.7219	-269.567	-63.3759	-37.7909	-213.163	-92.2565	-52.357	-217.77	-99.401	-77.2474	-222.059	-107.63	-103.346	-197.522	-102.994	-61.8241	-202.672	-107.286	-82.6304	-208.641	-116.447	-111.851	-163.868	-101.867	-57.8365	-162.181	-105.118	-77.4284	-161.371	-109.308	-106.522	-150.125	-93.9977	-43.8069	-146.364	-96.9165	-64.918	-141.884	-102.162	-88.3829	-170.899	-97.4845	-1.65728	-167.712	-88.8626	25.686	-198.123	-85.5547	11.8348	
94	0.783333	-216.477	-50.0416	19.2497	-242.925	-47.2157	0.63994	-263.339	-49.8751	-22.8075	-273.881	-47.7652	-36.9289	-233.571	-91.9542	-50.3594	-238.214	-101.409	-71.1617	-246.728	-108.314	-92.6946	-222.129	-106.076	-54.8118	-231.177	-111.488	-76.6584	-240.36	-124.201	-102.798	-189.773	-113.225	-51.5434	-191.549	-118.925	-71.6057	-189.527	-130.119	-99.9943	-171.826	-108.926	-40.6752	-166.345	-116.112	-57.7026	-170.067	-127.119	-80.0509	-188.816	-100.51	2.76061	-181.888	-95.6341	29.8586	-210.005	-83.5103	14.877	
95	0.791667	-215.676	-37.7758	17.5453	-236.991	-27.3635	0.475265	-257.215	-26.928	-23.6409	-269.911	-16.3856	-37.0229	-245.785	-78.1629	-49.688	-254.155	-85.7477	-71.1596	-264.277	-93.479	-93.8938	-237.571	-97.3183	-51.8851	-247.631	-97.5688	-70.2127	-262.385	-107.814	-97.9584	-210.402	-111.732	-48.2378	-213.566	-117.644	-66.4187	-217.248	-127.544	-91.3837	-190.098	-114.788	-34.5704	-194.133	-123.04	-58.7295	-201.396	-130.16	-75.3149	-206.475	-100.619	3.70925	-196.073	-89.815	31.2147	-224.552	-68.8836	15.6287	
96	0.8	-206.48	-22.6919	14.4643	-222.368	-9.33033	-4.7243	-240.7	6.25908	-27.427	-247.977	13.5707	-43.6621	-245.561	-51.3417	-49.3688	-258.456	-52.1828	-72.6398	-270.473	-59.9306	-94.5304	-244.536	-73.2251	-49.6103	-256.925	-74.6315	-73.818	-271.584	-75.4151	-96.8537	-230.65	-93.3905	-46.7779	-236.29	-101.125	-67.4915	-241.381	-110.703	-90.3282	-214.716	-105.323	-35.5953	-218.428	-112.217	-54.9725	-225.547	-122.496	-71.0855	-220.698	-85.6936	5.42102	-211.442	-82.2314	32.3591	-222.735	-47.593	16.0021	
97	0.808333	-186.185	-11.9904	12.6766	-192.809	7.91846	-7.54602	-200.381	22.2505	-30.4924	-206.084	37.8404	-50.9564	-230.774	-21.304	-50.6995	-243.084	-19.1664	-78.3165	-255.262	-19.2991	-99.9672	-241.304	-44.9198	-53.3956	-250.609	-39.3659	-79.7339	-262.717	-34.531	-104.233	-237.654	-67.3423	-47.4524	-245.162	-75.3211	-67.5385	-253.801	-80.8085	-91.7753	-229.487	-84.6563	-34.1641	-235.737	-89.0419	-54.8263	-246.384	-96.3497	-72.0626	-228.118	-57.2982	4.67672	-215.15	-60.5791	34.8776	-215.279	-28.6652	10.8451	
98	0.816667	-161.878	-1.76997	10.6219	-156.819	16.6493	-10.6071	-158.981	32.904	-38.1123	-156.673	41.422	-55.2429	-206.099	0.732111	-56.7664	-212.781	7.56218	-84.3286	-221.863	12.9367	-104.054	-223.301	-11.9705	-59.6737	-225.674	-6.44433	-82.5956	-236.268	2.3091	-113.845	-232.928	-36.4664	-51.2087	-241.065	-40.7818	-70.2652	-248.891	-41.9626	-94.9307	-232.337	-53.3085	-36.9945	-238.55	-56.1513	-57.9418	-251.712	-59.0669	-77.0581	-221.618	-28.457	0.356486	-212.791	-33.6158	31.8765	-192.842	-5.67036	10.0226	
99	0.825	-145.168	0.128144	2.93093	-131.497	15.0229	-17.9204	-120.93	27.3422	-40.5106	-113.072	33.3702	-58.1633	-179.464	17.195	-66.8917	-180.394	22.5649	-88.3193	-185.8	30.2203	-113.276	-199.282	12.806	-65.6975	-198.042	18.6195	-93.4207	-200.86	28.6658	-123.084	-220.277	-6.45127	-58.9555	-225.208	-6.16782	-79.3692	-233.141	-6.81078	-104.302	-223.956	-19.3687	-40.37	-232.433	-22.0144	-60.9794	-241.404	-22.3157	-80.9898	-208.376	0.65986	-3.42135	-200.878	-4.12494	23.2389	-174.956	11.382	5.48453	
